#!OML:ASF F:\VICON\USERDATA\INSTALL\rory3\rory3.ASF
:FULLY-SPECIFIED
:DEGREES
665
root -0.205408 17.5008 -0.596782 4.43611 -0.247902 0.719329
lowerback 1.68443 -0.326694 0.585901
upperback 0.707531 -0.439414 -3.42093
thorax -0.250215 -0.215517 -3.83793
lowerneck -15.892 -11.5789 -14.7739
upperneck 2.27529 -12.9919 6.85776
head 4.54591 -6.21129 3.19301
rclavicle 3.27995e-015 -2.38542e-015
rhumerus 17.1426 0.39565 -1.36683
rradius 133.847
rwrist 19.3062
rhand -24.6869 21.4556
rfingers 7.12502
rthumb 1.81401 -8.51647
lclavicle 3.27995e-015 -2.38542e-015
lhumerus 20.4793 -13.2613 41.5419
lradius 132.393
lwrist 5.48399
lhand 2.08454 11.131
lfingers 7.12502
lthumb 27.5854 39.1293
rfemur -1.96381 16.8127 18.9536
rtibia 8.3415
rfoot -7.57029 -17.2416
rtoes -14.7736
lfemur -2.9288 -13.7087 -18.1862
ltibia 8.89682
lfoot -10.3123 8.24873
ltoes -21.293
666
root -0.198658 17.5031 -0.617117 4.58442 -0.249739 0.925643
lowerback 1.97148 -0.347907 0.400535
upperback 0.740467 -0.473652 -3.3645
thorax -0.37786 -0.233865 -3.67235
lowerneck -16.1579 -11.5338 -14.6689
upperneck 1.94042 -12.9089 6.96197
head 4.47351 -6.15344 3.21813
rclavicle 4.17448e-015 5.56597e-015
rhumerus 17.222 0.52361 -1.56958
rradius 133.714
rwrist 19.4647
rhand -24.6271 21.3275
rfingers 7.12502
rthumb 1.87173 -8.64401
lclavicle 4.17448e-015 5.56597e-015
lhumerus 20.6129 -13.5488 42.0121
lradius 132.263
lwrist 5.89302
lhand 3.06301 11.4598
lfingers 7.12502
lthumb 28.5208 39.305
rfemur -2.34741 16.7975 18.6254
rtibia 8.59019
rfoot -7.57199 -17.2627
rtoes -15.4636
lfemur -3.14437 -13.7039 -18.3784
ltibia 8.82331
lfoot -10.1837 8.18644
ltoes -20.7726
667
root -0.19178 17.5058 -0.6395 4.7746 -0.220158 1.00396
lowerback 2.16415 -0.402694 0.348471
upperback 0.853277 -0.54709 -3.27869
thorax -0.373736 -0.269642 -3.55144
lowerneck -16.6402 -11.5306 -14.5868
upperneck 1.65579 -12.8522 7.16095
head 4.46005 -6.09989 3.26164
rclavicle -1.93815e-014 -2.38542e-014
rhumerus 17.3804 0.447207 -1.78666
rradius 133.526
rwrist 19.6055
rhand -24.6087 21.4062
rfingers 7.12502
rthumb 1.88953 -8.5652
lclavicle -1.93815e-014 -2.38542e-014
lhumerus 20.767 -13.7586 42.3505
lradius 132.143
lwrist 6.28342
lhand 3.90076 11.7637
lfingers 7.12502
lthumb 29.321 39.4718
rfemur -2.79849 16.7588 18.4231
rtibia 8.834
rfoot -7.70596 -17.2434
rtoes -16.0967
lfemur -3.42195 -13.7178 -18.4056
ltibia 8.7541
lfoot -10.0217 8.14693
ltoes -20.5331
668
root -0.185503 17.5081 -0.661679 4.94997 -0.206349 0.966057
lowerback 2.35388 -0.444805 0.420316
upperback 0.967016 -0.600831 -3.1674
thorax -0.366383 -0.295428 -3.47459
lowerneck -17.1544 -11.5066 -14.5919
upperneck 1.49707 -12.7591 7.47303
head 4.5011 -6.02417 3.35285
rclavicle -1.36167e-014 8.74653e-015
rhumerus 17.4866 0.511385 -2.06169
rradius 133.304
rwrist 19.715
rhand -24.767 21.7159
rfingers 7.12502
rthumb 1.7366 -8.25677
lclavicle -1.36167e-014 8.74653e-015
lhumerus 20.9024 -14.1668 42.5054
lradius 132
lwrist 6.70884
lhand 4.53563 12.155
lfingers 7.12502
lthumb 29.9269 39.7555
rfemur -3.2354 16.7458 18.3564
rtibia 9.0529
rfoot -7.89312 -17.2383
rtoes -15.637
lfemur -3.69592 -13.7051 -18.3039
ltibia 8.70006
lfoot -9.86619 8.08753
ltoes -20.504
669
root -0.176802 17.5094 -0.681376 5.09271 -0.25128 1.02972
lowerback 2.52834 -0.441538 0.418009
upperback 1.08043 -0.595649 -3.11538
thorax -0.346866 -0.291665 -3.41888
lowerneck -17.4325 -11.4498 -14.4889
upperneck 1.14401 -12.6742 7.76402
head 4.43918 -5.95595 3.43673
rclavicle 1.54058e-014 1.82882e-014
rhumerus 17.4839 0.679981 -2.42968
rradius 133.117
rwrist 19.7916
rhand -25.0196 21.7575
rfingers 7.12502
rthumb 1.49261 -8.21702
lclavicle 1.54058e-014 1.82882e-014
lhumerus 21.0757 -14.7138 42.6712
lradius 131.723
lwrist 7.24963
lhand 5.15254 12.5345
lfingers 7.12502
lthumb 30.5155 40.0272
rfemur -3.59141 16.7696 18.1674
rtibia 9.2172
rfoot -7.91785 -17.24
rtoes -15.3547
lfemur -3.94976 -13.6468 -18.3556
ltibia 8.72074
lfoot -9.76933 8.07579
ltoes -20.7529
670
root -0.16782 17.5115 -0.700771 5.25183 -0.293031 1.12718
lowerback 2.70596 -0.438284 0.384342
upperback 1.13201 -0.593082 -3.10478
thorax -0.392801 -0.290404 -3.38798
lowerneck -17.4418 -11.3438 -14.2866
upperneck 0.67169 -12.5842 8.07338
head 4.29637 -5.88984 3.52673
rclavicle -6.26172e-015 -7.95139e-016
rhumerus 17.4344 0.90275 -2.92502
rradius 132.787
rwrist 20.0401
rhand -25.5836 22.0647
rfingers 7.12502
rthumb 0.94792 -7.91298
lclavicle -6.26172e-015 -7.95139e-016
lhumerus 21.1973 -15.3637 43.0001
lradius 131.361
lwrist 7.75258
lhand 5.85964 12.6361
lfingers 7.12502
lthumb 31.1896 40.0012
rfemur -3.95309 16.7987 17.9344
rtibia 9.3877
rfoot -7.91489 -17.203
rtoes -15.6116
lfemur -4.22166 -13.5956 -18.4469
ltibia 8.75992
lfoot -9.74092 8.0855
ltoes -20.982
671
root -0.159243 17.5149 -0.725685 5.43915 -0.280371 1.20651
lowerback 2.93929 -0.431387 0.396914
upperback 1.12026 -0.586854 -3.10005
thorax -0.535153 -0.288631 -3.38887
lowerneck -17.2976 -11.2432 -14.0956
upperneck 0.194571 -12.5185 8.3703
head 4.1325 -5.84155 3.61715
rclavicle 5.96354e-015 3.89618e-014
rhumerus 17.3142 1.23661 -3.49592
rradius 132.218
rwrist 20.5934
rhand -26.6779 23.0902
rfingers 7.12502
rthumb -0.108951 -6.88954
lclavicle 5.96354e-015 3.89618e-014
lhumerus 21.3095 -16.1886 43.4113
lradius 130.943
lwrist 8.17223
lhand 6.48958 12.427
lfingers 7.12502
lthumb 31.7897 39.6749
rfemur -4.44821 16.7727 17.7131
rtibia 9.69729
rfoot -8.03131 -17.1729
rtoes -15.8868
lfemur -4.48962 -13.5944 -18.4827
ltibia 8.66578
lfoot -9.58755 8.05334
ltoes -20.9568
